<svg xmlns="http://www.w3.org/2000/svg" width="460" height="400" viewBox="0 0 460 400"><defs><pattern id="grain" width="19" height="23" patternUnits="userSpaceOnUse"><circle cx="3" cy="5" r="1" fill="#334e50" opacity=".055"/><circle cx="14" cy="17" r="1" fill="white" opacity=".12"/></pattern></defs><ellipse cx="230" cy="370" rx="195" ry="23" fill="#526d4928" /><ellipse cx="230" cy="310" rx="160" ry="57" fill="#b1b8a1" /><rect x="187" y="170" width="86" height="132" rx="8" fill="#ddd6b6" /><ellipse cx="230" cy="169" rx="180" ry="86" fill="#c1bfa3" /><ellipse cx="230" cy="155" rx="180" ry="78" fill="#fff1d3" /><path d="M230 78A180 78 0 0 1 410 156L230 156Z" fill="#e4c789" /><path d="M230 155L333 191L231 104Z" fill="#819891" /><path d="M230 155V49L184 162Z" fill="#517978" /><path d="M376 155L390 155" stroke="#b77855" stroke-width="4" stroke-linecap="round"/><path d="M356.43970895252806 184.5L368.5640646055102 188" stroke="#b77855" stroke-width="4" stroke-linecap="round"/><path d="M303 206.09549882328187L310 212.15767664977295" stroke="#b77855" stroke-width="4" stroke-linecap="round"/><path d="M230 214L230 221" stroke="#b77855" stroke-width="4" stroke-linecap="round"/><path d="M157.00000000000003 206.0954988232819L150.00000000000003 212.15767664977295" stroke="#b77855" stroke-width="4" stroke-linecap="round"/><path d="M103.56029104747195 184.5L91.4359353944898 188" stroke="#b77855" stroke-width="4" stroke-linecap="round"/><path d="M84 155L70 155" stroke="#b77855" stroke-width="4" stroke-linecap="round"/><path d="M103.56029104747194 125.50000000000001L91.43593539448977 122.00000000000003" stroke="#b77855" stroke-width="4" stroke-linecap="round"/><path d="M156.99999999999994 103.90450117671813L149.99999999999994 97.84232335022706" stroke="#b77855" stroke-width="4" stroke-linecap="round"/><path d="M229.99999999999997 96L229.99999999999997 89" stroke="#b77855" stroke-width="4" stroke-linecap="round"/><path d="M303 103.90450117671813L310 97.84232335022705" stroke="#b77855" stroke-width="4" stroke-linecap="round"/><path d="M356.439708952528 125.49999999999997L368.5640646055101 121.99999999999997" stroke="#b77855" stroke-width="4" stroke-linecap="round"/><ellipse cx="230" cy="309" rx="67" ry="22" fill="#e6dec0" /></svg>