<?xml version="1.0" encoding="UTF-8"?>
<!DOCTYPE svg PUBLIC "-//W3C//DTD SVG 1.1//EN" "http://www.w3.org/Graphics/SVG/1.1/DTD/svg11.dtd">
<svg xmlns="http://www.w3.org/2000/svg" version="1.1" width="500px" height="500px" style="shape-rendering:geometricPrecision; text-rendering:geometricPrecision; image-rendering:optimizeQuality; fill-rule:evenodd; clip-rule:evenodd" xmlns:xlink="http://www.w3.org/1999/xlink">
<g><path style="opacity:1" fill="#eef0f2" d="M 175.5,79.5 C 176.978,79.238 178.311,79.5713 179.5,80.5C 181.117,84.014 182.117,87.6807 182.5,91.5C 191.2,88.9952 199.866,86.1619 208.5,83C 235.833,79.7238 263.167,79.7238 290.5,83C 299.282,85.5617 307.949,88.3951 316.5,91.5C 316.583,87.4199 317.583,83.5865 319.5,80C 324.82,80.5962 330.153,81.5962 335.5,83C 354.811,88.9935 373.311,96.8269 391,106.5C 391.498,109.817 391.665,113.15 391.5,116.5C 423.07,124.901 444.237,144.568 455,175.5C 459.937,190.516 462.937,205.849 464,221.5C 460,226.833 455.333,231.5 450,235.5C 450.867,245.624 452.7,255.624 455.5,265.5C 454.45,270.068 451.95,273.735 448,276.5C 448.883,289.713 451.217,302.713 455,315.5C 455.667,317.833 455.667,320.167 455,322.5C 450.645,326.517 445.978,330.184 441,333.5C 439.283,346.827 437.616,360.16 436,373.5C 435.626,374.416 435.126,375.25 434.5,376C 407.033,384.336 380.533,381.836 355,368.5C 354.97,371.615 353.803,374.115 351.5,376C 318.935,388.445 288.602,404.778 260.5,425C 258.017,426.326 255.517,427.493 253,428.5C 246.971,425.898 241.471,422.398 236.5,418C 209.304,400.57 180.304,386.57 149.5,376C 147.396,373.958 146.229,371.458 146,368.5C 119.858,381.776 92.6909,384.442 64.5,376.5C 63.1937,362.105 61.3604,347.772 59,333.5C 54.5942,329.712 49.7609,326.545 44.5,324C 43.9032,322.938 43.5698,321.772 43.5,320.5C 46.8165,307.234 49.8165,293.901 52.5,280.5C 49.8579,276.691 47.0246,273.024 44,269.5C 44.7884,258.883 46.6217,248.383 49.5,238C 49.3333,237.167 49.1667,236.333 49,235.5C 44.2993,231.134 39.966,226.467 36,221.5C 36.9689,193.579 45.3022,168.246 61,145.5C 73.4561,130.86 88.9561,121.194 107.5,116.5C 107.335,113.482 107.502,110.482 108,107.5C 110.5,105.667 113,103.833 115.5,102C 134.865,92.4705 154.865,84.9705 175.5,79.5 Z"/></g>
<g><path style="opacity:1" fill="#080707" d="M 231.5,85.5 C 251.251,85.2083 270.917,86.375 290.5,89C 298.695,91.4288 306.695,94.4288 314.5,98C 316.134,98.4935 317.801,98.6602 319.5,98.5C 320.766,95.6994 321.599,92.6994 322,89.5C 322.347,87.8198 323.347,86.8198 325,86.5C 345.895,92.0176 365.895,99.6843 385,109.5C 385.203,113.421 385.703,117.255 386.5,121C 414.282,126.607 434.116,142.107 446,167.5C 453.166,184.161 457.166,201.494 458,219.5C 453.465,225.032 448.631,230.199 443.5,235C 445.658,244.44 447.658,253.94 449.5,263.5C 448.809,268.533 446.309,272.533 442,275.5C 441.833,276.833 441.667,278.167 441.5,279.5C 443.855,292.065 446.522,304.565 449.5,317C 449.646,319.034 448.98,320.701 447.5,322C 443.423,323.787 439.59,325.954 436,328.5C 434.334,341.828 432.667,355.161 431,368.5C 430.751,369.624 430.251,370.624 429.5,371.5C 400.485,379.263 373.652,374.597 349,357.5C 348.828,362.202 348.328,366.868 347.5,371.5C 313.671,384.493 282.171,401.493 253,422.5C 222.566,400.532 189.399,383.699 153.5,372C 152.728,366.896 152.561,361.729 153,356.5C 131.571,371.393 107.738,377.56 81.5,375C 77.486,374.163 73.486,373.329 69.5,372.5C 67.9304,358.139 66.0971,343.806 64,329.5C 59.9162,326.874 55.7495,324.374 51.5,322C 50.4258,321.261 49.7591,320.261 49.5,319C 53.6939,304.74 56.1939,290.24 57,275.5C 52.6911,272.533 50.1911,268.533 49.5,263.5C 51.2447,253.776 53.2447,244.11 55.5,234.5C 51.5999,230.096 47.4332,225.763 43,221.5C 41.6917,219.866 40.8584,218.032 40.5,216C 43.4221,194.123 50.2555,173.623 61,154.5C 73.4089,136.103 90.5756,124.937 112.5,121C 113.297,117.255 113.797,113.421 114,109.5C 132.526,99.0988 152.193,91.4322 173,86.5C 174.107,86.5852 175.107,86.9186 176,87.5C 177.238,91.5514 178.404,95.5514 179.5,99.5C 188.438,96.0382 197.438,92.5382 206.5,89C 214.968,87.7353 223.301,86.5687 231.5,85.5 Z"/></g>
<g><path style="opacity:1" fill="#7c7c7c" d="M 412.5,361.5 C 408.366,362.485 404.032,362.818 399.5,362.5C 399.5,364.167 399.5,365.833 399.5,367.5C 380.226,366.729 363.06,360.395 348,348.5C 347.202,346.741 347.369,345.074 348.5,343.5C 367.777,356.654 389.111,362.654 412.5,361.5 Z"/></g>
<g><path style="opacity:1" fill="#7f7f7f" d="M 100.5,367.5 C 100.714,365.856 100.38,364.356 99.5,363C 95.5138,362.501 91.5138,362.334 87.5,362.5C 86.8333,362.5 86.5,362.167 86.5,361.5C 111.183,363.082 133.516,356.749 153.5,342.5C 154.833,344.5 154.833,346.5 153.5,348.5C 137.827,360.16 120.16,366.493 100.5,367.5 Z"/></g>
<g><path style="opacity:1" fill="#929292" d="M 163.5,345.5 C 162.54,348.902 162.54,352.235 163.5,355.5C 162.275,354.848 161.608,353.681 161.5,352C 161.497,349.516 162.163,347.349 163.5,345.5 Z"/></g>
<g><path style="opacity:1" fill="#f6c843" d="M 412.5,343.5 C 415.833,343.5 419.167,343.5 422.5,343.5C 422.5,346.833 422.5,350.167 422.5,353.5C 419.193,354.051 415.86,354.384 412.5,354.5C 412.5,350.833 412.5,347.167 412.5,343.5 Z"/></g>
<g><path style="opacity:1" fill="#aa7537" d="M 412.5,342.5 C 412.5,342.833 412.5,343.167 412.5,343.5C 406.436,343.845 400.602,342.845 395,340.5C 390.939,342.485 389.439,345.819 390.5,350.5C 392.124,350.64 393.29,349.973 394,348.5C 395.067,349.191 396.234,349.691 397.5,350C 394.962,352.359 395.629,353.859 399.5,354.5C 404.12,355.493 408.786,355.827 413.5,355.5C 406.597,356.899 399.597,356.732 392.5,355C 385.39,348.329 386.056,342.829 394.5,338.5C 400.26,341.054 406.26,342.388 412.5,342.5 Z"/></g>
<g><path style="opacity:1" fill="#c27a29" d="M 94.5,355.5 C 94.1667,351.5 93.8333,347.5 93.5,343.5C 90.8333,343.5 88.1667,343.5 85.5,343.5C 84.8333,343.5 84.5,343.167 84.5,342.5C 92.0313,342.739 99.3646,342.239 106.5,341C 109.649,342.933 110.982,345.766 110.5,349.5C 107.886,349.277 106.219,350.444 105.5,353C 101.855,353.995 98.1883,354.828 94.5,355.5 Z"/></g>
<g><path style="opacity:1" fill="#e0962d" d="M 85.5,343.5 C 88.1667,343.5 90.8333,343.5 93.5,343.5C 93.8333,347.5 94.1667,351.5 94.5,355.5C 92.1667,355.5 89.8333,355.5 87.5,355.5C 86.5584,351.582 85.8918,347.582 85.5,343.5 Z"/></g>
<g><path style="opacity:1" fill="#f3c746" d="M 77.5,341.5 C 79.6074,342.468 81.9407,342.802 84.5,342.5C 84.5,343.167 84.8333,343.5 85.5,343.5C 85.8918,347.582 86.5584,351.582 87.5,355.5C 86.5,355.5 85.5,355.5 84.5,355.5C 81.5718,355.435 78.9052,354.768 76.5,353.5C 76.3639,350.65 76.0305,347.817 75.5,345C 75.6083,343.319 76.2749,342.152 77.5,341.5 Z"/></g>
<g><path style="opacity:1" fill="#3d3011" d="M 77.5,341.5 C 76.2749,342.152 75.6083,343.319 75.5,345C 76.0305,347.817 76.3639,350.65 76.5,353.5C 74.8227,349.455 74.1561,345.122 74.5,340.5C 75.791,340.263 76.791,340.596 77.5,341.5 Z"/></g>
<g><path style="opacity:1" fill="#ca822c" d="M 412.5,343.5 C 412.5,347.167 412.5,350.833 412.5,354.5C 415.86,354.384 419.193,354.051 422.5,353.5C 419.877,355.265 416.877,355.932 413.5,355.5C 408.786,355.827 404.12,355.493 399.5,354.5C 395.629,353.859 394.962,352.359 397.5,350C 396.234,349.691 395.067,349.191 394,348.5C 393.29,349.973 392.124,350.64 390.5,350.5C 389.439,345.819 390.939,342.485 395,340.5C 400.602,342.845 406.436,343.845 412.5,343.5 Z"/></g>
<g><path style="opacity:1" fill="#545455" d="M 311.5,340.5 C 311.56,339.957 311.893,339.624 312.5,339.5C 313.822,348.658 313.822,357.658 312.5,366.5C 312.826,357.651 312.493,348.984 311.5,340.5 Z"/></g>
<g><path style="opacity:1" fill="#d0ba66" d="M 422.5,353.5 C 422.5,350.167 422.5,346.833 422.5,343.5C 419.167,343.5 415.833,343.5 412.5,343.5C 412.5,343.167 412.5,342.833 412.5,342.5C 416.575,342.002 420.575,342.002 424.5,342.5C 423.896,346.303 423.23,349.969 422.5,353.5 Z"/></g>
<g><path style="opacity:1" fill="#c0c0c3" d="M 311.5,340.5 C 312.493,348.984 312.826,357.651 312.5,366.5C 291.27,376.448 271.27,388.448 252.5,402.5C 233.335,388.093 212.669,376.093 190.5,366.5C 189.167,357.833 189.167,349.167 190.5,340.5C 211.062,348.19 231.562,356.19 252,364.5C 271.576,355.73 291.409,347.73 311.5,340.5 Z"/></g>
<g><path style="opacity:1" fill="#c2c2c3" d="M 176.5,335.5 C 178.612,336.594 180.779,337.594 183,338.5C 183.5,346.493 183.666,354.493 183.5,362.5C 176.793,360.971 170.46,358.638 164.5,355.5C 166.6,349.82 167.6,343.82 167.5,337.5C 171.012,338.055 174.012,337.388 176.5,335.5 Z"/></g>
<g><path style="opacity:1" fill="#926431" d="M 84.5,355.5 C 85.5,355.5 86.5,355.5 87.5,355.5C 89.8333,355.5 92.1667,355.5 94.5,355.5C 98.1883,354.828 101.855,353.995 105.5,353C 106.219,350.444 107.886,349.277 110.5,349.5C 110.982,345.766 109.649,342.933 106.5,341C 99.3646,342.239 92.0313,342.739 84.5,342.5C 81.9407,342.802 79.6074,342.468 77.5,341.5C 87.0222,342.12 96.3556,341.12 105.5,338.5C 111.205,340.982 113.039,345.315 111,351.5C 106.213,355.874 100.546,357.541 94,356.5C 90.6482,356.498 87.4815,356.165 84.5,355.5 Z"/></g>
<g><path style="opacity:1" fill="#c2c3c5" d="M 324.5,335.5 C 323.15,336.824 323.317,337.824 325,338.5C 328.478,337.671 331.978,337.004 335.5,336.5C 335.5,343.167 335.5,349.833 335.5,356.5C 330.015,359.07 324.348,361.403 318.5,363.5C 318.334,354.827 318.5,346.16 319,337.5C 320.725,336.536 322.559,335.869 324.5,335.5 Z"/></g>
<g><path style="opacity:1" fill="#deb24f" d="M 81.5,331.5 C 83.2646,332.461 85.2646,332.795 87.5,332.5C 88.0906,333.151 88.7573,333.818 89.5,334.5C 85.8927,335.489 82.226,335.823 78.5,335.5C 74.5,336.167 72.8333,334.5 73.5,330.5C 76.1667,330.833 78.8333,331.167 81.5,331.5 Z"/></g>
<g><path style="opacity:1" fill="#ba8645" d="M 415.5,332.5 C 414.909,333.151 414.243,333.818 413.5,334.5C 415.396,335.466 417.396,335.799 419.5,335.5C 413.143,337.024 406.81,336.524 400.5,334C 400.167,333.667 399.833,333.333 399.5,333C 404.823,332.501 410.156,332.334 415.5,332.5 Z"/></g>
<g><path style="opacity:1" fill="#b17d41" d="M 87.5,332.5 C 92.0323,332.182 96.3656,332.515 100.5,333.5C 98.4375,334.776 96.1042,335.61 93.5,336C 88.3158,336.816 83.3158,336.65 78.5,335.5C 82.226,335.823 85.8927,335.489 89.5,334.5C 88.7573,333.818 88.0906,333.151 87.5,332.5 Z"/></g>
<g><path style="opacity:1" fill="#e1bf5a" d="M 419.5,335.5 C 417.396,335.799 415.396,335.466 413.5,334.5C 414.243,333.818 414.909,333.151 415.5,332.5C 418.589,331.215 421.922,330.549 425.5,330.5C 425.56,334.485 423.56,336.152 419.5,335.5 Z"/></g>
<g><path style="opacity:1" fill="#ececec" d="M 335.5,356.5 C 335.5,349.833 335.5,343.167 335.5,336.5C 331.978,337.004 328.478,337.671 325,338.5C 323.317,337.824 323.15,336.824 324.5,335.5C 328.958,333.272 333.625,331.605 338.5,330.5C 338.378,338.408 339.044,346.242 340.5,354C 339.381,355.876 337.714,356.709 335.5,356.5 Z"/></g>
<g><path style="opacity:1" fill="#eaeaea" d="M 176.5,335.5 C 174.012,337.388 171.012,338.055 167.5,337.5C 167.6,343.82 166.6,349.82 164.5,355.5C 164.167,355.5 163.833,355.5 163.5,355.5C 162.54,352.235 162.54,348.902 163.5,345.5C 163.173,340.456 163.506,335.456 164.5,330.5C 168.362,332.563 172.362,334.23 176.5,335.5 Z"/></g>
<g><path style="opacity:1" fill="#5a390d" d="M 81.5,331.5 C 88.1998,331.17 94.8665,331.503 101.5,332.5C 101.376,333.107 101.043,333.44 100.5,333.5C 96.3656,332.515 92.0323,332.182 87.5,332.5C 85.2646,332.795 83.2646,332.461 81.5,331.5 Z"/></g>
<g><path style="opacity:1" fill="#868687" d="M 336.5,311.5 C 336.737,312.791 336.404,313.791 335.5,314.5C 331.074,319.135 326.741,323.968 322.5,329C 317.299,331.432 311.966,333.599 306.5,335.5C 312.816,330.017 317.816,323.517 321.5,316C 320.552,315.517 319.552,315.351 318.5,315.5C 324.359,314.059 330.359,312.726 336.5,311.5 Z"/></g>
<g><path style="opacity:1" fill="#868688" d="M 163.5,311.5 C 168.42,313.559 173.42,314.892 178.5,315.5C 178.062,315.435 177.728,315.601 177.5,316C 181.942,323.606 187.609,330.106 194.5,335.5C 188.405,334.414 182.739,332.247 177.5,329C 173.286,324.454 169.453,319.621 166,314.5C 165.31,313.262 164.81,313.262 164.5,314.5C 163.596,313.791 163.263,312.791 163.5,311.5 Z"/></g>
<g><path style="opacity:1" fill="#b0b0b0" d="M 335.5,314.5 C 336.404,313.791 336.737,312.791 336.5,311.5C 338.305,310.091 340.305,309.591 342.5,310C 340.131,314.607 338.464,319.441 337.5,324.5C 334.801,324.466 332.301,325.133 330,326.5C 329.833,326.167 329.667,325.833 329.5,325.5C 332.287,322.259 334.287,318.593 335.5,314.5 Z"/></g>
<g><path style="opacity:1" fill="#f2f2f0" d="M 421.5,321.5 C 420.448,321.649 419.448,321.483 418.5,321C 421.778,319.352 424.945,317.519 428,315.5C 428.415,311.828 427.582,308.495 425.5,305.5C 427.386,304.639 429.22,303.639 431,302.5C 432.322,306.79 433.489,311.123 434.5,315.5C 433.811,317.353 432.478,318.519 430.5,319C 427.479,319.849 424.479,320.683 421.5,321.5 Z"/></g>
<g><path style="opacity:1" fill="#b4b4b6" d="M 163.5,311.5 C 163.263,312.791 163.596,313.791 164.5,314.5C 166.109,318.217 168.109,321.717 170.5,325C 168.087,325.484 165.754,325.15 163.5,324C 161.365,319.281 159.032,314.614 156.5,310C 158.922,309.865 161.255,310.365 163.5,311.5 Z"/></g>
<g><path style="opacity:1" fill="#c0c1c2" d="M 425.5,305.5 C 427.582,308.495 428.415,311.828 428,315.5C 424.945,317.519 421.778,319.352 418.5,321C 419.448,321.483 420.448,321.649 421.5,321.5C 402.957,326.122 384.624,325.122 366.5,318.5C 366.389,317.883 366.056,317.383 365.5,317C 366.793,316.51 368.127,316.343 369.5,316.5C 374.346,316.773 378.679,315.44 382.5,312.5C 382.043,311.702 381.376,311.369 380.5,311.5C 382.167,310.833 383.833,310.167 385.5,309.5C 399.079,310.279 412.412,308.945 425.5,305.5 Z"/></g>
<g><path style="opacity:1" fill="#bfc0c1" d="M 73.5,305.5 C 85.8955,309.005 98.5622,310.339 111.5,309.5C 113.786,309.595 115.786,310.262 117.5,311.5C 116.711,311.783 116.044,312.283 115.5,313C 120.164,315.582 125.164,316.749 130.5,316.5C 131.791,316.263 132.791,316.596 133.5,317.5C 116.313,324.507 98.6461,326.174 80.5,322.5C 82.1992,322.66 83.8659,322.494 85.5,322C 80.1965,320.792 75.3631,318.625 71,315.5C 70.9131,311.985 71.7465,308.652 73.5,305.5 Z"/></g>
<g><path style="opacity:1" fill="#0c0c0d" d="M 380.5,311.5 C 381.376,311.369 382.043,311.702 382.5,312.5C 378.679,315.44 374.346,316.773 369.5,316.5C 366.413,315.443 363.746,313.609 361.5,311C 359.888,310.28 358.388,310.446 357,311.5C 356.383,310.551 356.549,309.718 357.5,309C 365.381,308.029 373.048,308.862 380.5,311.5 Z"/></g>
<g><path style="opacity:1" fill="#0f0f10" d="M 130.5,316.5 C 125.164,316.749 120.164,315.582 115.5,313C 116.044,312.283 116.711,311.783 117.5,311.5C 120.89,310.977 124.223,310.143 127.5,309C 132.167,308.333 136.833,308.333 141.5,309C 143.405,309.826 143.739,310.993 142.5,312.5C 141.146,310.816 139.479,310.316 137.5,311C 135.825,313.819 133.491,315.652 130.5,316.5 Z"/></g>
<g><path style="opacity:1" fill="#ececec" d="M 73.5,305.5 C 71.7465,308.652 70.9131,311.985 71,315.5C 75.3631,318.625 80.1965,320.792 85.5,322C 83.8659,322.494 82.1992,322.66 80.5,322.5C 74.5537,321.689 69.2203,319.522 64.5,316C 65.9584,311.957 66.6251,307.791 66.5,303.5C 68.9653,303.767 71.2986,304.434 73.5,305.5 Z"/></g>
<g><path style="opacity:1" fill="#7f7f7e" d="M 133.5,317.5 C 132.791,316.596 131.791,316.263 130.5,316.5C 133.491,315.652 135.825,313.819 137.5,311C 139.479,310.316 141.146,310.816 142.5,312.5C 143.739,310.993 143.405,309.826 141.5,309C 136.833,308.333 132.167,308.333 127.5,309C 124.223,310.143 120.89,310.977 117.5,311.5C 115.786,310.262 113.786,309.595 111.5,309.5C 122.418,308.253 132.918,305.253 143,300.5C 143.772,300.645 144.439,300.978 145,301.5C 146.026,305.29 147.193,308.957 148.5,312.5C 143.589,314.457 138.589,316.123 133.5,317.5 Z"/></g>
<g><path style="opacity:1" fill="#7d7d7d" d="M 385.5,309.5 C 383.833,310.167 382.167,310.833 380.5,311.5C 373.048,308.862 365.381,308.029 357.5,309C 356.549,309.718 356.383,310.551 357,311.5C 358.388,310.446 359.888,310.28 361.5,311C 363.746,313.609 366.413,315.443 369.5,316.5C 368.127,316.343 366.793,316.51 365.5,317C 366.056,317.383 366.389,317.883 366.5,318.5C 361.472,316.99 356.638,314.99 352,312.5C 352.217,309.153 352.884,305.82 354,302.5C 354.388,301.572 355.055,300.905 356,300.5C 365.563,304.892 375.396,307.892 385.5,309.5 Z"/></g>
<g><path style="opacity:1" fill="#b4b4b4" d="M 345.5,290.5 C 347.008,288.819 348.008,286.819 348.5,284.5C 349.708,283.218 351.042,283.218 352.5,284.5C 350.233,291.034 347.233,297.034 343.5,302.5C 341.845,303.228 340.179,303.395 338.5,303C 341.764,299.301 344.097,295.134 345.5,290.5 Z"/></g>
<g><path style="opacity:1" fill="#a0733a" d="M 72.5,298.5 C 73.8333,298.5 75.1667,298.5 76.5,298.5C 79.8678,300.1 82.8678,299.434 85.5,296.5C 87.1167,292.986 88.1167,289.319 88.5,285.5C 86.5853,285.784 84.9187,285.451 83.5,284.5C 85.4672,284.739 87.3005,284.406 89,283.5C 90.1737,288.94 89.1737,293.94 86,298.5C 84.8176,300.357 83.151,301.357 81,301.5C 77.8923,300.966 75.059,299.966 72.5,298.5 Z"/></g>
<g><path style="opacity:1" fill="#d18729" d="M 77.5,284.5 C 79.5,284.5 81.5,284.5 83.5,284.5C 84.9187,285.451 86.5853,285.784 88.5,285.5C 88.1167,289.319 87.1167,292.986 85.5,296.5C 82.8678,299.434 79.8678,300.1 76.5,298.5C 77.4861,294.03 77.8195,289.363 77.5,284.5 Z"/></g>
<g><path style="opacity:1" fill="#bcab62" d="M 425.5,282.5 C 426.209,281.596 427.209,281.263 428.5,281.5C 428.979,285.854 429.646,290.188 430.5,294.5C 430.547,296.038 429.88,297.038 428.5,297.5C 428.663,293.293 428.329,289.126 427.5,285C 427.316,283.624 426.649,282.791 425.5,282.5 Z"/></g>
<g><path style="opacity:1" fill="#d58d2c" d="M 425.5,282.5 C 424.791,283.404 423.791,283.737 422.5,283.5C 422.437,288.203 422.771,292.87 423.5,297.5C 424.833,297.5 426.167,297.5 427.5,297.5C 425.786,298.738 423.786,299.405 421.5,299.5C 419.5,299.5 417.5,299.5 415.5,299.5C 412.935,295.291 411.268,290.624 410.5,285.5C 413.85,285.665 417.183,285.498 420.5,285C 421.056,284.617 421.389,284.117 421.5,283.5C 422.568,282.566 423.901,282.232 425.5,282.5 Z"/></g>
<g><path style="opacity:1" fill="#858586" d="M 348.5,284.5 C 348.008,286.819 347.008,288.819 345.5,290.5C 341.698,294.747 338.364,299.414 335.5,304.5C 331.972,306.231 328.306,307.565 324.5,308.5C 327.623,302.421 330.623,296.254 333.5,290C 333.164,288.97 332.497,288.47 331.5,288.5C 336.853,286.425 342.52,285.091 348.5,284.5 Z"/></g>
<g><path style="opacity:1" fill="#f8ca48" d="M 425.5,282.5 C 426.649,282.791 427.316,283.624 427.5,285C 428.329,289.126 428.663,293.293 428.5,297.5C 428.167,297.5 427.833,297.5 427.5,297.5C 426.167,297.5 424.833,297.5 423.5,297.5C 422.771,292.87 422.437,288.203 422.5,283.5C 423.791,283.737 424.791,283.404 425.5,282.5 Z"/></g>
<g><path style="opacity:1" fill="#d9be5f" d="M 74.5,283.5 C 72.6316,286.158 71.6316,289.324 71.5,293C 71.9902,295.987 73.6568,297.82 76.5,298.5C 75.1667,298.5 73.8333,298.5 72.5,298.5C 70.5357,298.023 69.2023,296.856 68.5,295C 69.6551,290.57 70.3218,286.07 70.5,281.5C 72.3797,281.229 73.713,281.896 74.5,283.5 Z"/></g>
<g><path style="opacity:1" fill="#f6be3b" d="M 74.5,283.5 C 75.791,283.263 76.791,283.596 77.5,284.5C 77.8195,289.363 77.4861,294.03 76.5,298.5C 73.6568,297.82 71.9902,295.987 71.5,293C 71.6316,289.324 72.6316,286.158 74.5,283.5 Z"/></g>
<g><path style="opacity:1" fill="#b5b5b8" d="M 150.5,284.5 C 151.475,286.795 152.808,288.795 154.5,290.5C 156.467,295.644 159.467,300.144 163.5,304C 159.791,304.212 156.291,303.378 153,301.5C 150.598,295.459 148.098,289.459 145.5,283.5C 147.439,282.366 149.105,282.7 150.5,284.5 Z"/></g>
<g><path style="opacity:1" fill="#858588" d="M 150.5,284.5 C 157.062,285.311 163.395,286.644 169.5,288.5C 168.022,288.238 166.689,288.571 165.5,289.5C 167.307,295.118 170.14,300.118 174,304.5C 174.49,305.793 174.657,307.127 174.5,308.5C 172.199,307.94 169.866,307.44 167.5,307C 163.303,301.313 158.97,295.813 154.5,290.5C 152.808,288.795 151.475,286.795 150.5,284.5 Z"/></g>
<g><path style="opacity:1" fill="#a2703a" d="M 421.5,283.5 C 421.389,284.117 421.056,284.617 420.5,285C 417.183,285.498 413.85,285.665 410.5,285.5C 411.268,290.624 412.935,295.291 415.5,299.5C 417.5,299.5 419.5,299.5 421.5,299.5C 419.474,301.502 417.141,301.836 414.5,300.5C 410.19,295.26 408.69,289.26 410,282.5C 413.546,284.775 417.379,285.109 421.5,283.5 Z"/></g>
<g><path style="opacity:1" fill="#a26e3b" d="M 399.5,246.5 C 400.931,246.881 401.764,247.881 402,249.5C 402.893,259.064 404.727,268.398 407.5,277.5C 405.833,277.5 404.167,277.5 402.5,277.5C 400.84,267.257 399.84,256.924 399.5,246.5 Z"/></g>
<g><path style="opacity:1" fill="#9b6939" d="M 97.5,246.5 C 98.5,246.5 99.5,246.5 100.5,246.5C 99.0636,256.43 98.0636,266.43 97.5,276.5C 95.8333,276.5 94.1667,276.5 92.5,276.5C 94.681,266.594 96.3477,256.594 97.5,246.5 Z"/></g>
<g><path style="opacity:1" fill="#848485" d="M 338.5,279.5 C 339.668,273.308 341.334,267.308 343.5,261.5C 343.043,260.702 342.376,260.369 341.5,260.5C 345.62,258.628 349.953,257.461 354.5,257C 352.088,259.035 352.755,260.035 356.5,260C 358.124,261.117 359.124,262.617 359.5,264.5C 358.746,268.101 357.413,271.434 355.5,274.5C 350.058,276.944 344.392,278.61 338.5,279.5 Z"/></g>
<g><path style="opacity:1" fill="#c1c0c4" d="M 176.5,139.5 C 175.366,141.966 175.199,144.633 176,147.5C 179.455,157.957 185.622,166.457 194.5,173C 211.625,183.766 230.125,191.266 250,195.5C 271.587,190.624 291.42,181.79 309.5,169C 315.189,163.653 319.689,157.486 323,150.5C 323.801,147.633 323.634,144.966 322.5,142.5C 322.433,141.041 322.766,139.708 323.5,138.5C 324.167,146.5 324.833,154.5 325.5,162.5C 325.5,164.833 325.5,167.167 325.5,169.5C 326.143,195.546 332.309,220.213 344,243.5C 345.149,246.393 345.649,249.393 345.5,252.5C 336.964,254.01 328.797,256.676 321,260.5C 320.833,260.833 320.667,261.167 320.5,261.5C 327.547,262.557 334.547,262.224 341.5,260.5C 342.376,260.369 343.043,260.702 343.5,261.5C 341.334,267.308 339.668,273.308 338.5,279.5C 331.07,280.921 323.903,283.254 317,286.5C 316.833,286.833 316.667,287.167 316.5,287.5C 321.456,288.494 326.456,288.827 331.5,288.5C 332.497,288.47 333.164,288.97 333.5,290C 330.623,296.254 327.623,302.421 324.5,308.5C 319.417,308.691 315.083,310.524 311.5,314C 313.594,315.352 315.927,315.852 318.5,315.5C 319.552,315.351 320.552,315.517 321.5,316C 317.816,323.517 312.816,330.017 306.5,335.5C 288.157,342.422 269.99,349.756 252,357.5C 232.653,350.224 213.486,342.891 194.5,335.5C 187.609,330.106 181.942,323.606 177.5,316C 177.728,315.601 178.062,315.435 178.5,315.5C 181.898,315.82 185.232,315.487 188.5,314.5C 184.579,310.876 179.912,308.876 174.5,308.5C 174.657,307.127 174.49,305.793 174,304.5C 170.14,300.118 167.307,295.118 165.5,289.5C 166.689,288.571 168.022,288.238 169.5,288.5C 173.884,288.826 178.217,288.492 182.5,287.5C 182.333,287.167 182.167,286.833 182,286.5C 175.908,283.942 169.742,281.942 163.5,280.5C 160.497,274.707 158.163,268.54 156.5,262C 156.57,261.235 156.903,260.735 157.5,260.5C 164.754,262.447 172.088,262.78 179.5,261.5C 177.972,260.139 176.305,258.972 174.5,258C 167.392,256.158 160.392,254.325 153.5,252.5C 155.496,243.821 158.663,235.487 163,227.5C 171.579,206.693 175.413,185.026 174.5,162.5C 174.334,153.827 174.5,145.16 175,136.5C 175.513,137.527 176.013,138.527 176.5,139.5 Z"/></g>
<g><path style="opacity:1" fill="#0e0a08" d="M 190.5,187.5 C 202.375,201.769 217.708,209.102 236.5,209.5C 235.167,211.5 233.5,213.167 231.5,214.5C 231.667,214.833 231.833,215.167 232,215.5C 245.158,227.957 257.991,240.791 270.5,254C 271.448,254.483 272.448,254.649 273.5,254.5C 273.871,243.47 274.371,232.47 275,221.5C 270.985,217.318 266.818,213.318 262.5,209.5C 276.253,208.448 288.919,204.281 300.5,197C 303.704,193.964 306.704,190.797 309.5,187.5C 310.167,197.167 310.833,206.833 311.5,216.5C 312.766,225.268 317.099,232.101 324.5,237C 319.833,237.333 315.167,237.667 310.5,238C 308.714,238.785 307.214,239.951 306,241.5C 303.164,270.87 299.997,300.203 296.5,329.5C 292.46,326.806 288.793,323.639 285.5,320C 281.294,317.398 276.961,315.064 272.5,313C 258.696,298.195 244.529,283.695 230,269.5C 231.211,284.092 232.045,298.759 232.5,313.5C 227.062,313.479 222.062,314.979 217.5,318C 212.397,321.266 207.73,325.1 203.5,329.5C 199.722,300.612 196.888,271.612 195,242.5C 193.387,240.223 191.22,238.723 188.5,238C 184.459,237.827 180.459,237.327 176.5,236.5C 183.867,231.378 187.867,224.378 188.5,215.5C 189.167,206.167 189.833,196.833 190.5,187.5 Z"/></g>
<g><path style="opacity:1" fill="#bb823c" d="M 269.5,300.5 C 272.353,301.34 274.686,303.006 276.5,305.5C 278.982,306.897 281.648,307.731 284.5,308C 284.167,308.333 283.833,308.667 283.5,309C 285.718,311.333 288.218,311.833 291,310.5C 291.186,307.964 291.686,305.631 292.5,303.5C 292.5,307.5 292.5,311.5 292.5,315.5C 289.035,315.772 286.035,314.272 283.5,311C 277.57,309.243 272.903,305.743 269.5,300.5 Z"/></g>
<g><path style="opacity:1" fill="#b18440" d="M 223.5,276.5 C 224.289,287.09 225.289,297.756 226.5,308.5C 224.146,308.838 221.813,309.338 219.5,310C 215.563,312.465 211.563,314.632 207.5,316.5C 207.088,307.807 206.421,299.141 205.5,290.5C 207.288,297.935 208.621,305.601 209.5,313.5C 213.914,310.961 218.581,308.961 223.5,307.5C 223.821,297.208 223.821,286.875 223.5,276.5 Z"/></g>
<g><path style="opacity:1" fill="#261708" d="M 296.5,276.5 C 295.998,289.183 295.165,301.849 294,314.5C 293.617,315.056 293.117,315.389 292.5,315.5C 292.5,311.5 292.5,307.5 292.5,303.5C 293.942,294.514 295.275,285.514 296.5,276.5 Z"/></g>
<g><path style="opacity:1" fill="#cd9a41" d="M 307.5,226.5 C 310.624,230.438 309.624,232.938 304.5,234C 302.622,235.543 301.122,237.376 300,239.5C 299.159,251.87 297.992,264.203 296.5,276.5C 295.275,285.514 293.942,294.514 292.5,303.5C 292.5,299.833 292.5,296.167 292.5,292.5C 292.5,288.5 292.5,284.5 292.5,280.5C 293.117,280.389 293.617,280.056 294,279.5C 294.021,272.656 295.021,265.989 297,259.5C 297.737,250.843 298.237,242.177 298.5,233.5C 301.341,233.44 304.007,232.774 306.5,231.5C 307.451,230.081 307.784,228.415 307.5,226.5 Z"/></g>
<g><path style="opacity:1" fill="#d5922f" d="M 200.5,237.5 C 201.222,237.918 201.722,238.584 202,239.5C 202.52,245.025 203.353,250.358 204.5,255.5C 204.34,257.199 204.506,258.866 205,260.5C 205.333,259.833 205.667,259.167 206,258.5C 207.044,260.715 207.71,263.048 208,265.5C 208.8,273.216 208.633,280.883 207.5,288.5C 208.23,291.109 208.73,293.776 209,296.5C 209.17,290.472 209.67,284.472 210.5,278.5C 211.192,277.975 211.692,277.308 212,276.5C 214.526,278.328 216.86,280.328 219,282.5C 219.879,277.613 219.379,272.946 217.5,268.5C 217.667,267.5 217.833,266.5 218,265.5C 218.036,267.941 218.869,269.941 220.5,271.5C 221.497,264.866 221.83,258.2 221.5,251.5C 226.017,251.02 228.35,253.02 228.5,257.5C 226.608,256.298 224.774,254.965 223,253.5C 223.206,261.142 223.372,268.809 223.5,276.5C 223.821,286.875 223.821,297.208 223.5,307.5C 218.581,308.961 213.914,310.961 209.5,313.5C 208.621,305.601 207.288,297.935 205.5,290.5C 204.661,284.325 203.994,277.992 203.5,271.5C 203.745,265.916 203.078,260.583 201.5,255.5C 201.407,249.484 201.074,243.484 200.5,237.5 Z"/></g>
<g><path style="opacity:1" fill="#dc962a" d="M 292.5,292.5 C 292.5,296.167 292.5,299.833 292.5,303.5C 291.686,305.631 291.186,307.964 291,310.5C 288.218,311.833 285.718,311.333 283.5,309C 283.833,308.667 284.167,308.333 284.5,308C 281.648,307.731 278.982,306.897 276.5,305.5C 274.686,303.006 272.353,301.34 269.5,300.5C 267.833,298.5 266.167,296.5 264.5,294.5C 264.461,293.417 264.127,292.417 263.5,291.5C 264.167,290.833 264.833,290.167 265.5,289.5C 262.104,287.079 258.771,284.746 255.5,282.5C 256.251,281.427 257.251,281.26 258.5,282C 260.792,283.138 262.792,284.638 264.5,286.5C 265.681,284.865 265.681,283.198 264.5,281.5C 262.792,279.457 260.792,277.79 258.5,276.5C 261.68,275.388 264.514,276.054 267,278.5C 269.516,273.472 272.349,272.972 275.5,277C 276.448,277.483 277.448,277.649 278.5,277.5C 278.351,278.552 278.517,279.552 279,280.5C 280,278.833 281,277.167 282,275.5C 282.577,279.732 285.077,282.066 289.5,282.5C 290.513,285.954 291.513,289.287 292.5,292.5 Z"/></g>
<g><path style="opacity:1" fill="#c98b38" d="M 228.5,257.5 C 231.732,259.722 234.732,262.388 237.5,265.5C 242.711,267.561 246.378,271.228 248.5,276.5C 250.578,278.92 252.912,280.92 255.5,282.5C 258.771,284.746 262.104,287.079 265.5,289.5C 264.833,290.167 264.167,290.833 263.5,291.5C 264.127,292.417 264.461,293.417 264.5,294.5C 251.801,282.802 239.801,270.469 228.5,257.5 Z"/></g>
<g><path style="opacity:1" fill="#46280d" d="M 201.5,255.5 C 203.078,260.583 203.745,265.916 203.5,271.5C 202.194,266.384 201.527,261.051 201.5,255.5 Z"/></g>
<g><path style="opacity:1" fill="#efae2f" d="M 296.5,215.5 C 296.735,214.903 297.235,214.57 298,214.5C 299.507,215.555 301.007,216.555 302.5,217.5C 303.995,222.087 305.328,226.754 306.5,231.5C 304.007,232.774 301.341,233.44 298.5,233.5C 298.237,242.177 297.737,250.843 297,259.5C 295.021,265.989 294.021,272.656 294,279.5C 293.617,280.056 293.117,280.389 292.5,280.5C 292.077,279.735 291.743,278.902 291.5,278C 293.371,272.888 293.704,267.722 292.5,262.5C 293.301,254.882 293.801,247.216 294,239.5C 295.142,232.588 296.309,225.588 297.5,218.5C 297.48,217.274 297.147,216.274 296.5,215.5 Z"/></g>
<g><path style="opacity:1" fill="#848485" d="M 157.5,260.5 C 156.903,260.735 156.57,261.235 156.5,262C 158.163,268.54 160.497,274.707 163.5,280.5C 156.439,278.984 149.439,277.318 142.5,275.5C 142.197,271.763 141.197,268.263 139.5,265C 140.893,261.768 142.893,258.935 145.5,256.5C 149.614,257.853 153.614,259.186 157.5,260.5 Z"/></g>
<g><path style="opacity:1" fill="#c7c7c8" d="M 70.5,242.5 C 71.6253,244.129 72.9586,245.629 74.5,247C 78.3814,249.037 82.3814,250.87 86.5,252.5C 87.3857,253.325 87.719,254.325 87.5,255.5C 87.3281,261.761 84.9947,266.928 80.5,271C 81.448,271.483 82.448,271.649 83.5,271.5C 83.5,272.833 83.5,274.167 83.5,275.5C 79.0983,275.074 75.0983,273.74 71.5,271.5C 72.8734,271.657 74.2068,271.49 75.5,271C 73.2005,269.275 71.0338,267.442 69,265.5C 69.0523,258.797 68.8856,252.131 68.5,245.5C 67.8875,246.955 66.8875,248.622 65.5,250.5C 65.7358,247.086 66.4025,243.753 67.5,240.5C 68.5178,241.193 69.5178,241.859 70.5,242.5 Z"/></g>
<g><path style="opacity:1" fill="#ebebeb" d="M 428.5,270.5 C 426.115,269.133 426.448,267.799 429.5,266.5C 429.833,265 430.167,263.5 430.5,262C 429.871,256.061 428.871,250.227 427.5,244.5C 428.694,243.728 429.694,242.728 430.5,241.5C 430.56,240.957 430.893,240.624 431.5,240.5C 432.543,248.431 434.543,256.098 437.5,263.5C 435.344,266.998 432.344,269.331 428.5,270.5 Z"/></g>
<g><path style="opacity:1" fill="#c6c5c7" d="M 427.5,244.5 C 428.871,250.227 429.871,256.061 430.5,262C 430.167,263.5 429.833,265 429.5,266.5C 426.448,267.799 426.115,269.133 428.5,270.5C 424.789,273.486 420.456,275.152 415.5,275.5C 415.5,274.167 415.5,272.833 415.5,271.5C 416.552,271.649 417.552,271.483 418.5,271C 414.734,267.3 412.734,262.8 412.5,257.5C 412.261,255.533 412.594,253.699 413.5,252C 418.384,249.727 423.051,247.227 427.5,244.5 Z"/></g>
<g><path style="opacity:1" fill="#828282" d="M 430.5,241.5 C 429.694,242.728 428.694,243.728 427.5,244.5C 423.051,247.227 418.384,249.727 413.5,252C 412.594,253.699 412.261,255.533 412.5,257.5C 410.864,253.79 410.198,249.79 410.5,245.5C 417.416,245.017 424.083,243.683 430.5,241.5 Z"/></g>
<g><path style="opacity:1" fill="#f0f0f0" d="M 71.5,271.5 C 67.4976,270.011 64.1642,267.511 61.5,264C 62.9089,259.533 64.2423,255.033 65.5,250.5C 66.8875,248.622 67.8875,246.955 68.5,245.5C 68.8856,252.131 69.0523,258.797 69,265.5C 71.0338,267.442 73.2005,269.275 75.5,271C 74.2068,271.49 72.8734,271.657 71.5,271.5 Z"/></g>
<g><path style="opacity:1" fill="#7d7d7e" d="M 325.5,169.5 C 328.196,198.584 336.529,225.918 350.5,251.5C 348.708,251.366 347.042,251.699 345.5,252.5C 345.649,249.393 345.149,246.393 344,243.5C 332.309,220.213 326.143,195.546 325.5,169.5 Z"/></g>
<g><path style="opacity:1" fill="#848484" d="M 70.5,242.5 C 76.6608,244.471 82.9941,245.471 89.5,245.5C 89.1006,249.011 88.4339,252.344 87.5,255.5C 87.719,254.325 87.3857,253.325 86.5,252.5C 82.3814,250.87 78.3814,249.037 74.5,247C 72.9586,245.629 71.6253,244.129 70.5,242.5 Z"/></g>
<g><path style="opacity:1" fill="#e3bc48" d="M 301.5,203.5 C 303.119,206.548 304.119,209.881 304.5,213.5C 305.373,217.863 306.373,222.196 307.5,226.5C 307.784,228.415 307.451,230.081 306.5,231.5C 305.328,226.754 303.995,222.087 302.5,217.5C 302.824,213.445 302.491,209.445 301.5,205.5C 299.477,207.173 297.144,207.84 294.5,207.5C 296.663,205.917 298.996,204.584 301.5,203.5 Z"/></g>
<g><path style="opacity:1" fill="#c19c4c" d="M 195.5,215.5 C 195.5,216.833 195.5,218.167 195.5,219.5C 195.071,223.677 194.071,227.677 192.5,231.5C 195.535,231.347 197.535,232.68 198.5,235.5C 196.072,233.957 193.406,232.957 190.5,232.5C 192.64,226.933 194.307,221.266 195.5,215.5 Z"/></g>
<g><path style="opacity:1" fill="#f3b937" d="M 204.5,215.5 C 203.624,215.369 202.957,215.702 202.5,216.5C 206.28,229.497 206.947,242.497 204.5,255.5C 203.353,250.358 202.52,245.025 202,239.5C 201.722,238.584 201.222,237.918 200.5,237.5C 199.5,237.167 198.833,236.5 198.5,235.5C 197.535,232.68 195.535,231.347 192.5,231.5C 194.071,227.677 195.071,223.677 195.5,219.5C 196.401,218.71 197.068,217.71 197.5,216.5C 200.244,220.492 201.577,219.826 201.5,214.5C 202.791,214.263 203.791,214.596 204.5,215.5 Z"/></g>
<g><path style="opacity:1" fill="#848484" d="M 112.5,222.5 C 114.948,221.527 117.615,221.194 120.5,221.5C 120.5,223.833 120.5,226.167 120.5,228.5C 112.865,229.495 105.198,230.161 97.5,230.5C 98.0289,228.417 99.0289,226.583 100.5,225C 104.951,224.87 109.284,224.204 113.5,223C 113.272,222.601 112.938,222.435 112.5,222.5 Z"/></g>
<g><path style="opacity:1" fill="#c1c1c1" d="M 435.5,208.5 C 430.888,218.996 422.888,225.496 411.5,228C 412.793,228.49 414.127,228.657 415.5,228.5C 413.735,229.461 411.735,229.795 409.5,229.5C 404.913,230.378 401.58,228.878 399.5,225C 394.749,224.811 390.083,224.145 385.5,223C 391.348,222.827 397.015,222.327 402.5,221.5C 415.165,221.28 426.165,216.947 435.5,208.5 Z"/></g>
<g><path style="opacity:1" fill="#f8cd40" d="M 215.5,211.5 C 222.186,213.497 227.52,217.497 231.5,223.5C 231.709,224.922 232.209,226.255 233,227.5C 236.022,229.688 238.522,232.355 240.5,235.5C 239.805,236.476 239.138,237.476 238.5,238.5C 231.007,232.173 223.673,225.673 216.5,219C 212.277,218.446 208.277,217.279 204.5,215.5C 203.791,214.596 202.791,214.263 201.5,214.5C 201.577,219.826 200.244,220.492 197.5,216.5C 197.177,212.774 197.511,209.107 198.5,205.5C 203.664,208.915 209.33,210.915 215.5,211.5 Z"/></g>
<g><path style="opacity:1" fill="#e49d27" d="M 204.5,215.5 C 208.277,217.279 212.277,218.446 216.5,219C 223.673,225.673 231.007,232.173 238.5,238.5C 239.672,239.705 241.005,239.705 242.5,238.5C 244.794,239.706 247.127,240.706 249.5,241.5C 249.709,242.922 250.209,244.255 251,245.5C 255.068,250.073 259.568,254.073 264.5,257.5C 268.921,260.71 272.921,264.377 276.5,268.5C 277.189,269.774 278.023,269.774 279,268.5C 280.29,256.196 281.123,243.862 281.5,231.5C 281.833,231.5 282.167,231.5 282.5,231.5C 283.931,231.119 284.764,230.119 285,228.5C 285.176,225.118 285.676,221.785 286.5,218.5C 289.863,217.494 293.196,216.494 296.5,215.5C 297.147,216.274 297.48,217.274 297.5,218.5C 296.309,225.588 295.142,232.588 294,239.5C 293.801,247.216 293.301,254.882 292.5,262.5C 293.704,267.722 293.371,272.888 291.5,278C 291.743,278.902 292.077,279.735 292.5,280.5C 292.5,284.5 292.5,288.5 292.5,292.5C 291.513,289.287 290.513,285.954 289.5,282.5C 285.077,282.066 282.577,279.732 282,275.5C 281,277.167 280,278.833 279,280.5C 278.517,279.552 278.351,278.552 278.5,277.5C 277.448,277.649 276.448,277.483 275.5,277C 272.349,272.972 269.516,273.472 267,278.5C 264.514,276.054 261.68,275.388 258.5,276.5C 260.792,277.79 262.792,279.457 264.5,281.5C 265.681,283.198 265.681,284.865 264.5,286.5C 262.792,284.638 260.792,283.138 258.5,282C 257.251,281.26 256.251,281.427 255.5,282.5C 252.912,280.92 250.578,278.92 248.5,276.5C 246.378,271.228 242.711,267.561 237.5,265.5C 234.732,262.388 231.732,259.722 228.5,257.5C 228.35,253.02 226.017,251.02 221.5,251.5C 221.83,258.2 221.497,264.866 220.5,271.5C 218.869,269.941 218.036,267.941 218,265.5C 217.833,266.5 217.667,267.5 217.5,268.5C 219.379,272.946 219.879,277.613 219,282.5C 216.86,280.328 214.526,278.328 212,276.5C 211.692,277.308 211.192,277.975 210.5,278.5C 209.67,284.472 209.17,290.472 209,296.5C 208.73,293.776 208.23,291.109 207.5,288.5C 208.633,280.883 208.8,273.216 208,265.5C 207.71,263.048 207.044,260.715 206,258.5C 205.667,259.167 205.333,259.833 205,260.5C 204.506,258.866 204.34,257.199 204.5,255.5C 206.947,242.497 206.28,229.497 202.5,216.5C 202.957,215.702 203.624,215.369 204.5,215.5 Z"/></g>
<g><path style="opacity:1" fill="#b2853b" d="M 281.5,227.5 C 281.5,228.833 281.5,230.167 281.5,231.5C 281.123,243.862 280.29,256.196 279,268.5C 278.023,269.774 277.189,269.774 276.5,268.5C 278.192,256.367 279.359,244.034 280,231.5C 280.21,229.942 280.71,228.609 281.5,227.5 Z"/></g>
<g><path style="opacity:1" fill="#c49744" d="M 249.5,241.5 C 254.465,245.963 259.298,250.63 264,255.5C 264.464,256.094 264.631,256.761 264.5,257.5C 259.568,254.073 255.068,250.073 251,245.5C 250.209,244.255 249.709,242.922 249.5,241.5 Z"/></g>
<g><path style="opacity:1" fill="#dcaf44" d="M 231.5,223.5 C 237.779,229.113 243.779,235.113 249.5,241.5C 247.127,240.706 244.794,239.706 242.5,238.5C 241.005,239.705 239.672,239.705 238.5,238.5C 239.138,237.476 239.805,236.476 240.5,235.5C 238.522,232.355 236.022,229.688 233,227.5C 232.209,226.255 231.709,224.922 231.5,223.5 Z"/></g>
<g><path style="opacity:1" fill="#c2c2c3" d="M 62.5,207.5 C 70.8346,215.673 80.8346,220.506 92.5,222C 99.1583,222.5 105.825,222.666 112.5,222.5C 112.938,222.435 113.272,222.601 113.5,223C 109.284,224.204 104.951,224.87 100.5,225C 99.0289,226.583 98.0289,228.417 97.5,230.5C 92.9,230.72 88.5667,230.054 84.5,228.5C 85.8734,228.657 87.2068,228.49 88.5,228C 76.1367,225.674 67.4701,218.841 62.5,207.5 Z"/></g>
<g><path style="opacity:1" fill="#7c7c7e" d="M 402.5,221.5 C 397.015,222.327 391.348,222.827 385.5,223C 390.083,224.145 394.749,224.811 399.5,225C 401.58,228.878 404.913,230.378 409.5,229.5C 399.589,230.887 389.589,230.554 379.5,228.5C 379.5,226.167 379.5,223.833 379.5,221.5C 387.167,221.5 394.833,221.5 402.5,221.5 Z"/></g>
<g><path style="opacity:1" fill="#dfc259" d="M 294.5,207.5 C 290.73,211.294 286.063,213.294 280.5,213.5C 282.209,219.328 282.876,225.328 282.5,231.5C 282.167,231.5 281.833,231.5 281.5,231.5C 281.5,230.167 281.5,228.833 281.5,227.5C 281.665,224.482 281.498,221.482 281,218.5C 279.315,216.983 277.815,215.316 276.5,213.5C 282.426,211.377 288.426,209.377 294.5,207.5 Z"/></g>
<g><path style="opacity:1" fill="#7f7f80" d="M 174.5,162.5 C 175.413,185.026 171.579,206.693 163,227.5C 158.663,235.487 155.496,243.821 153.5,252.5C 151.883,251.962 150.216,251.629 148.5,251.5C 154.809,239.881 160.309,227.881 165,215.5C 169.714,197.967 172.881,180.3 174.5,162.5 Z"/></g>
<g><path style="opacity:1" fill="#ae9b51" d="M 304.5,213.5 C 304.119,209.881 303.119,206.548 301.5,203.5C 301.811,202.522 302.478,201.855 303.5,201.5C 304.491,205.445 304.824,209.445 304.5,213.5 Z"/></g>
<g><path style="opacity:1" fill="#fad341" d="M 302.5,217.5 C 301.007,216.555 299.507,215.555 298,214.5C 297.235,214.57 296.735,214.903 296.5,215.5C 293.196,216.494 289.863,217.494 286.5,218.5C 285.676,221.785 285.176,225.118 285,228.5C 284.764,230.119 283.931,231.119 282.5,231.5C 282.876,225.328 282.209,219.328 280.5,213.5C 286.063,213.294 290.73,211.294 294.5,207.5C 297.144,207.84 299.477,207.173 301.5,205.5C 302.491,209.445 302.824,213.445 302.5,217.5 Z"/></g>
<g><path style="opacity:1" fill="#eeeeee" d="M 62.5,207.5 C 67.4701,218.841 76.1367,225.674 88.5,228C 87.2068,228.49 85.8734,228.657 84.5,228.5C 74.0737,226.87 65.2403,222.203 58,214.5C 57.3058,210.998 57.8058,207.664 59.5,204.5C 60.2876,205.77 61.2876,206.77 62.5,207.5 Z"/></g>
<g><path style="opacity:1" fill="#f2f2f1" d="M 415.5,228.5 C 414.127,228.657 412.793,228.49 411.5,228C 422.888,225.496 430.888,218.996 435.5,208.5C 437.129,207.375 438.629,206.041 440,204.5C 441.483,207.702 441.817,211.036 441,214.5C 434.025,221.905 425.525,226.572 415.5,228.5 Z"/></g>
<g><path style="opacity:1" fill="#dfc257" d="M 215.5,211.5 C 209.33,210.915 203.664,208.915 198.5,205.5C 197.511,209.107 197.177,212.774 197.5,216.5C 197.068,217.71 196.401,218.71 195.5,219.5C 195.5,218.167 195.5,216.833 195.5,215.5C 195.173,210.786 195.507,206.12 196.5,201.5C 202.343,205.986 208.676,209.319 215.5,211.5 Z"/></g>
<g><path style="opacity:1" fill="#888789" d="M 311.5,216.5 C 310.833,206.833 310.167,197.167 309.5,187.5C 309.783,186.711 310.283,186.044 311,185.5C 311.5,195.828 311.666,206.161 311.5,216.5 Z"/></g>
<g><path style="opacity:1" fill="#8d8d90" d="M 190.5,187.5 C 189.833,196.833 189.167,206.167 188.5,215.5C 188.334,205.494 188.5,195.494 189,185.5C 189.717,186.044 190.217,186.711 190.5,187.5 Z"/></g>
<g><path style="opacity:1" fill="#848484" d="M 393.5,187.5 C 393.389,188.117 393.056,188.617 392.5,189C 394.286,189.785 395.786,190.951 397,192.5C 401.192,199.596 403.692,207.263 404.5,215.5C 397.58,216.628 390.58,216.795 383.5,216C 382.975,215.308 382.308,214.808 381.5,214.5C 380.256,208.831 380.256,203.164 381.5,197.5C 385.546,194.155 389.546,190.821 393.5,187.5 Z"/></g>
<g><path style="opacity:1" fill="#848484" d="M 106.5,187.5 C 109.786,190.924 113.619,193.924 118,196.5C 119.257,202.769 119.757,209.102 119.5,215.5C 110.007,216.583 100.673,216.583 91.5,215.5C 92.8333,215.5 94.1667,215.5 95.5,215.5C 96.7654,207.102 99.2654,199.102 103,191.5C 104.627,190.468 105.793,189.134 106.5,187.5 Z"/></g>
<g><path style="opacity:1" fill="#9c7648" d="M 137.5,179.5 C 138.268,180.263 138.768,181.263 139,182.5C 139.383,181.944 139.883,181.611 140.5,181.5C 140.5,185.167 140.5,188.833 140.5,192.5C 140.665,196.182 140.499,199.848 140,203.5C 138.18,195.617 137.346,187.617 137.5,179.5 Z"/></g>
<g><path style="opacity:1" fill="#7a7a7c" d="M 385.5,163.5 C 385.344,167.582 385.844,171.582 387,175.5C 388.75,177.734 390.25,180.068 391.5,182.5C 388.833,182.5 386.167,182.5 383.5,182.5C 383.156,175.918 383.823,169.584 385.5,163.5 Z"/></g>
<g><path style="opacity:1" fill="#d79e4b" d="M 139.5,141.5 C 140.496,154.656 140.829,167.99 140.5,181.5C 139.883,181.611 139.383,181.944 139,182.5C 138.768,181.263 138.268,180.263 137.5,179.5C 136.946,172.847 136.612,166.18 136.5,159.5C 137.067,163.497 137.9,167.497 139,171.5C 139.5,161.506 139.666,151.506 139.5,141.5 Z"/></g>
<g><path style="opacity:1" fill="#7d7d7e" d="M 114.5,163.5 C 115.81,169.288 116.477,175.288 116.5,181.5C 112.357,181.904 108.357,182.904 104.5,184.5C 111.317,179.198 114.651,172.198 114.5,163.5 Z"/></g>
<g><path style="opacity:1" fill="#8e642f" d="M 362.5,159.5 C 362.833,159.5 363.167,159.5 363.5,159.5C 363.303,166.026 362.636,172.359 361.5,178.5C 361.407,172.137 361.74,165.804 362.5,159.5 Z"/></g>
<g><path style="opacity:1" fill="#af844a" d="M 359.5,135.5 C 359.17,154.341 359.503,173.007 360.5,191.5C 360.813,194.247 360.48,196.914 359.5,199.5C 358.172,178.004 358.172,156.67 359.5,135.5 Z"/></g>
<g><path style="opacity:1" fill="#d89f41" d="M 364.5,143.5 C 364.83,136.468 364.497,129.468 363.5,122.5C 362.914,122.291 362.414,121.957 362,121.5C 360.68,135.146 360.346,148.813 361,162.5C 361.232,161.263 361.732,160.263 362.5,159.5C 361.74,165.804 361.407,172.137 361.5,178.5C 361.818,183.032 361.485,187.366 360.5,191.5C 359.503,173.007 359.17,154.341 359.5,135.5C 359.5,129.5 359.5,123.5 359.5,117.5C 361.833,118.167 364.167,118.833 366.5,119.5C 366.384,127.693 365.717,135.693 364.5,143.5 Z"/></g>
<g><path style="opacity:1" fill="#c4c4c6" d="M 388.5,137.5 C 387.761,137.369 387.094,137.536 386.5,138C 401.137,144.975 412.97,155.142 422,168.5C 427.429,179.146 429.595,190.479 428.5,202.5C 429.833,202.5 431.167,202.5 432.5,202.5C 425.019,210.571 415.685,214.904 404.5,215.5C 403.692,207.263 401.192,199.596 397,192.5C 395.786,190.951 394.286,189.785 392.5,189C 393.056,188.617 393.389,188.117 393.5,187.5C 396.187,187.664 398.854,187.497 401.5,187C 397.958,185.725 394.625,184.225 391.5,182.5C 390.25,180.068 388.75,177.734 387,175.5C 385.844,171.582 385.344,167.582 385.5,163.5C 388.408,162.431 391.408,162.264 394.5,163C 398.43,164.477 402.43,165.644 406.5,166.5C 407.002,168.085 408.002,168.585 409.5,168C 407.274,165.047 405.441,161.88 404,158.5C 403.586,158.957 403.086,159.291 402.5,159.5C 396.592,156.919 390.926,153.919 385.5,150.5C 385.5,145.833 385.5,141.167 385.5,136.5C 386.791,136.263 387.791,136.596 388.5,137.5 Z"/></g>
<g><path style="opacity:1" fill="#c3c3c5" d="M 109.5,137.5 C 110.568,136.566 111.901,136.232 113.5,136.5C 113.5,139.5 113.5,142.5 113.5,145.5C 113.785,147.288 113.452,148.955 112.5,150.5C 105.236,153.769 99.2358,158.436 94.5,164.5C 92.6827,165.219 92.0161,166.219 92.5,167.5C 99.2939,162.966 106.627,161.632 114.5,163.5C 114.651,172.198 111.317,179.198 104.5,184.5C 102.158,184.504 100.158,185.337 98.5,187C 101.146,187.497 103.813,187.664 106.5,187.5C 105.793,189.134 104.627,190.468 103,191.5C 99.2654,199.102 96.7654,207.102 95.5,215.5C 94.1667,215.5 92.8333,215.5 91.5,215.5C 83.2641,214.547 76.2641,211.214 70.5,205.5C 69.4565,174.161 83.4565,151.661 112.5,138C 111.552,137.517 110.552,137.351 109.5,137.5 Z"/></g>
<g><path style="opacity:1" fill="#878789" d="M 309.5,112.5 C 311.714,112.291 313.381,113.124 314.5,115C 303.856,146.348 282.189,165.181 249.5,171.5C 216.428,164.753 194.762,145.419 184.5,113.5C 185.5,113.5 186.5,113.5 187.5,113.5C 198.533,141.859 219.2,157.859 249.5,161.5C 279.642,158.663 300.309,143.329 311.5,115.5C 311.058,114.261 310.391,113.261 309.5,112.5 Z"/></g>
<g><path style="opacity:1" fill="#664414" d="M 139.5,124.5 C 141.025,137.632 141.692,150.965 141.5,164.5C 141.5,174.006 141.166,183.339 140.5,192.5C 140.5,188.833 140.5,185.167 140.5,181.5C 140.829,167.99 140.496,154.656 139.5,141.5C 139.5,139.5 139.5,137.5 139.5,135.5C 139.5,131.833 139.5,128.167 139.5,124.5 Z"/></g>
<g><path style="opacity:1" fill="#939395" d="M 385.5,150.5 C 390.926,153.919 396.592,156.919 402.5,159.5C 403.086,159.291 403.586,158.957 404,158.5C 405.441,161.88 407.274,165.047 409.5,168C 408.002,168.585 407.002,168.085 406.5,166.5C 400.729,160.783 393.729,157.45 385.5,156.5C 385.5,154.5 385.5,152.5 385.5,150.5 Z"/></g>
<g><path style="opacity:1" fill="#808080" d="M 113.5,145.5 C 114.482,148.962 114.815,152.629 114.5,156.5C 106.95,156.941 100.283,159.608 94.5,164.5C 99.2358,158.436 105.236,153.769 112.5,150.5C 113.452,148.955 113.785,147.288 113.5,145.5 Z"/></g>
<g><path style="opacity:1" fill="#f1f1f2" d="M 109.5,137.5 C 110.552,137.351 111.552,137.517 112.5,138C 83.4565,151.661 69.4565,174.161 70.5,205.5C 66.1725,202.665 63.1725,198.832 61.5,194C 66.0931,170.77 78.4264,153.103 98.5,141C 102.009,139.241 105.675,138.074 109.5,137.5 Z"/></g>
<g><path style="opacity:1" fill="#f2f2f1" d="M 388.5,137.5 C 409.002,142.682 423.502,155.016 432,174.5C 434.566,180.863 436.732,187.363 438.5,194C 436.619,196.933 434.619,199.766 432.5,202.5C 431.167,202.5 429.833,202.5 428.5,202.5C 429.595,190.479 427.429,179.146 422,168.5C 412.97,155.142 401.137,144.975 386.5,138C 387.094,137.536 387.761,137.369 388.5,137.5 Z"/></g>
<g><path style="opacity:1" fill="#545454" d="M 325.5,162.5 C 324.833,154.5 324.167,146.5 323.5,138.5C 323.783,137.711 324.283,137.044 325,136.5C 325.5,145.16 325.666,153.827 325.5,162.5 Z"/></g>
<g><path style="opacity:1" fill="#f3f3f3" d="M 176.5,139.5 C 186.623,160.113 202.623,174.279 224.5,182C 232.808,184.903 241.308,187.069 250,188.5C 275.155,184.591 296.488,173.591 314,155.5C 316.857,151.102 319.691,146.768 322.5,142.5C 323.634,144.966 323.801,147.633 323,150.5C 319.689,157.486 315.189,163.653 309.5,169C 291.42,181.79 271.587,190.624 250,195.5C 230.125,191.266 211.625,183.766 194.5,173C 185.622,166.457 179.455,157.957 176,147.5C 175.199,144.633 175.366,141.966 176.5,139.5 Z"/></g>
<g><path style="opacity:1" fill="#ebaa36" d="M 364.5,143.5 C 363.725,148.797 363.392,154.13 363.5,159.5C 363.167,159.5 362.833,159.5 362.5,159.5C 361.732,160.263 361.232,161.263 361,162.5C 360.346,148.813 360.68,135.146 362,121.5C 362.414,121.957 362.914,122.291 363.5,122.5C 364.497,129.468 364.83,136.468 364.5,143.5 Z"/></g>
<g><path style="opacity:1" fill="#f0ae36" d="M 139.5,135.5 C 139.5,137.5 139.5,139.5 139.5,141.5C 139.666,151.506 139.5,161.506 139,171.5C 137.9,167.497 137.067,163.497 136.5,159.5C 135.908,156.873 135.575,154.206 135.5,151.5C 135.25,141.497 134.916,131.497 134.5,121.5C 135.5,121.5 136.5,121.5 137.5,121.5C 137.911,126.338 138.578,131.005 139.5,135.5 Z"/></g>
<g><path style="opacity:1" fill="#c3c3c4" d="M 192.5,111.5 C 197.877,122.38 205.877,130.88 216.5,137C 217.749,137.74 218.749,137.573 219.5,136.5C 236.042,145.454 253.376,146.954 271.5,141C 278.222,137.647 284.555,133.813 290.5,129.5C 290.897,130.525 291.563,130.692 292.5,130C 298.523,124.755 303.189,118.588 306.5,111.5C 307.609,111.557 308.609,111.89 309.5,112.5C 310.391,113.261 311.058,114.261 311.5,115.5C 300.309,143.329 279.642,158.663 249.5,161.5C 219.2,157.859 198.533,141.859 187.5,113.5C 188.78,112.069 190.447,111.402 192.5,111.5 Z"/></g>
<g><path style="opacity:1" fill="#c3943d" d="M 139.5,124.5 C 139.5,128.167 139.5,131.833 139.5,135.5C 138.578,131.005 137.911,126.338 137.5,121.5C 136.5,121.5 135.5,121.5 134.5,121.5C 134.916,131.497 135.25,141.497 135.5,151.5C 134,141.025 133,130.359 132.5,119.5C 134.833,118.833 137.167,118.167 139.5,117.5C 139.5,119.833 139.5,122.167 139.5,124.5 Z"/></g>
<g><path style="opacity:1" fill="#c1c1c3" d="M 166.5,105.5 C 171.192,141.896 168.692,177.896 159,213.5C 155.634,223.258 151.3,232.591 146,241.5C 144.659,237.29 143.826,232.957 143.5,228.5C 145.096,219.597 145.93,210.597 146,201.5C 146.5,182.17 146.667,162.836 146.5,143.5C 147.332,162.662 147.832,181.996 148,201.5C 149.528,191.555 150.528,181.555 151,171.5C 151.167,153.158 151.667,134.824 152.5,116.5C 156.833,115 161.167,113.5 165.5,112C 166.423,109.959 166.756,107.792 166.5,105.5 Z"/></g>
<g><path style="opacity:1" fill="#c2c2c4" d="M 335.5,106.5 C 334.351,106.791 333.684,107.624 333.5,109C 333.833,109.833 334.167,110.667 334.5,111.5C 338.714,113.774 343.047,115.774 347.5,117.5C 348.333,136.825 348.833,156.158 349,175.5C 349.255,185.576 350.255,195.576 352,205.5C 352.495,203.527 352.662,201.527 352.5,199.5C 353.393,209.191 354.393,219.025 355.5,229C 355.088,233.21 354.421,237.376 353.5,241.5C 344.61,227.378 338.777,212.044 336,195.5C 334.147,186.238 332.814,176.905 332,167.5C 331.238,146.816 331.405,126.149 332.5,105.5C 333.791,105.263 334.791,105.596 335.5,106.5 Z"/></g>
<g><path style="opacity:1" fill="#ebebeb" d="M 306.5,111.5 C 303.189,118.588 298.523,124.755 292.5,130C 291.563,130.692 290.897,130.525 290.5,129.5C 293.228,125.724 295.728,121.724 298,117.5C 298.822,114.883 299.322,112.216 299.5,109.5C 302.067,109.721 304.401,110.388 306.5,111.5 Z"/></g>
<g><path style="opacity:1" fill="#e9e9e9" d="M 219.5,136.5 C 218.749,137.573 217.749,137.74 216.5,137C 205.877,130.88 197.877,122.38 192.5,111.5C 194.6,109.727 196.934,109.394 199.5,110.5C 202.307,122.106 208.974,130.772 219.5,136.5 Z"/></g>
<g><path style="opacity:1" fill="#f4f4f3" d="M 335.5,106.5 C 341.253,108.207 346.919,110.207 352.5,112.5C 352.64,141.472 352.64,170.472 352.5,199.5C 352.662,201.527 352.495,203.527 352,205.5C 350.255,195.576 349.255,185.576 349,175.5C 348.833,156.158 348.333,136.825 347.5,117.5C 343.047,115.774 338.714,113.774 334.5,111.5C 334.167,110.667 333.833,109.833 333.5,109C 333.684,107.624 334.351,106.791 335.5,106.5 Z"/></g>
<g><path style="opacity:1" fill="#d29b42" d="M 268.5,108.5 C 268.5,108.167 268.5,107.833 268.5,107.5C 274.529,107.425 280.529,107.759 286.5,108.5C 286.5,107.5 286.5,106.5 286.5,105.5C 265.523,104.201 244.523,104.201 223.5,105.5C 232.315,106.398 241.148,106.398 250,105.5C 255.743,105.358 261.243,106.025 266.5,107.5C 253.829,107.333 241.162,107.5 228.5,108C 226.618,108.198 224.952,108.698 223.5,109.5C 219.481,109.646 215.481,109.979 211.5,110.5C 211.993,108.194 212.326,105.861 212.5,103.5C 237.531,101.903 262.531,102.237 287.5,104.5C 288.348,106.409 288.682,108.409 288.5,110.5C 281.776,110.326 275.109,109.659 268.5,108.5 Z"/></g>
<g><path style="opacity:1" fill="#391f0d" d="M 266.5,107.5 C 267.167,107.5 267.833,107.5 268.5,107.5C 268.5,107.833 268.5,108.167 268.5,108.5C 253.483,108.311 238.483,108.645 223.5,109.5C 224.952,108.698 226.618,108.198 228.5,108C 241.162,107.5 253.829,107.333 266.5,107.5 Z"/></g>
<g><path style="opacity:1" fill="#f5f5f5" d="M 166.5,105.5 C 166.756,107.792 166.423,109.959 165.5,112C 161.167,113.5 156.833,115 152.5,116.5C 151.667,134.824 151.167,153.158 151,171.5C 150.528,181.555 149.528,191.555 148,201.5C 147.832,181.996 147.332,162.662 146.5,143.5C 146.565,133.122 146.399,122.788 146,112.5C 152.496,109.168 159.33,106.835 166.5,105.5 Z"/></g>
<g><path style="opacity:1" fill="#eeaa34" d="M 268.5,107.5 C 267.833,107.5 267.167,107.5 266.5,107.5C 261.243,106.025 255.743,105.358 250,105.5C 241.148,106.398 232.315,106.398 223.5,105.5C 244.523,104.201 265.523,104.201 286.5,105.5C 286.5,106.5 286.5,107.5 286.5,108.5C 280.529,107.759 274.529,107.425 268.5,107.5 Z"/></g>
<g><path style="opacity:1" fill="#f0f1f1" d="M 86.5,361.5 C 86.5,362.167 86.8333,362.5 87.5,362.5C 87.5,363.833 87.5,365.167 87.5,366.5C 86.5,366.5 85.5,366.5 84.5,366.5C 79.4582,367.495 77.1248,365.495 77.5,360.5C 80.4552,361.159 83.4552,361.492 86.5,361.5 Z"/></g>
<g><path style="opacity:1" fill="#c0bfc3" d="M 87.5,362.5 C 91.5138,362.334 95.5138,362.501 99.5,363C 100.38,364.356 100.714,365.856 100.5,367.5C 94.9738,367.821 89.6405,367.488 84.5,366.5C 85.5,366.5 86.5,366.5 87.5,366.5C 87.5,365.167 87.5,363.833 87.5,362.5 Z"/></g>
<g><path style="opacity:1" fill="#cdcecf" d="M 399.5,367.5 C 399.5,365.833 399.5,364.167 399.5,362.5C 404.032,362.818 408.366,362.485 412.5,361.5C 415.667,361.6 418.667,360.933 421.5,359.5C 422.466,361.396 422.799,363.396 422.5,365.5C 414.906,366.883 407.24,367.55 399.5,367.5 Z"/></g>
</svg>
