<svg xmlns="http://www.w3.org/2000/svg" viewBox="0 0 100 100" fill="none">
  <!-- Background -->
  <rect width="100" height="100" fill="oklch(0.9 0.02 250)"/>

  <!-- Head -->
  <circle cx="50" cy="38" r="20" fill="oklch(0.85 0.03 80)"/>

  <!-- Hair -->
  <path d="M30 35 Q35 18 50 18 Q65 18 70 35 Q65 25 50 25 Q35 25 30 35" fill="oklch(0.3 0.02 60)"/>

  <!-- Face features -->
  <circle cx="43" cy="36" r="2.5" fill="oklch(0.3 0.02 60)"/>
  <circle cx="57" cy="36" r="2.5" fill="oklch(0.3 0.02 60)"/>
  <path d="M45 45 Q50 48 55 45" stroke="oklch(0.3 0.02 60)" stroke-width="2" stroke-linecap="round" fill="none"/>

  <!-- Glasses -->
  <rect x="37" y="32" width="12" height="8" rx="2" stroke="oklch(0.4 0.02 250)" stroke-width="1.5" fill="none"/>
  <rect x="51" y="32" width="12" height="8" rx="2" stroke="oklch(0.4 0.02 250)" stroke-width="1.5" fill="none"/>
  <line x1="49" y1="36" x2="51" y2="36" stroke="oklch(0.4 0.02 250)" stroke-width="1.5"/>

  <!-- Body/Shirt -->
  <path d="M25 100 Q25 70 50 65 Q75 70 75 100" fill="oklch(0.5 0.15 250)"/>

  <!-- Code symbols on shirt -->
  <text x="38" y="88" font-family="monospace" font-size="12" fill="oklch(0.9 0.02 250)">&lt;/&gt;</text>
</svg>
